<svg xmlns="http://www.w3.org/2000/svg" width="22.708" height="22.708" viewBox="0 0 22.708 22.708"><defs><style>.a{fill:#83786f;}</style></defs><path class="a" d="M11.354,0A11.354,11.354,0,1,0,22.709,11.354,11.354,11.354,0,0,0,11.354,0Zm0,20.934a9.58,9.58,0,1,1,9.58-9.58A9.58,9.58,0,0,1,11.354,20.934Z"/><path class="a" d="M200.639,131.939h-1.975V130.5c0-.442.457-.545.671-.545h1.276v-1.945L199.148,128a2.24,2.24,0,0,0-2.45,2.38v1.559H195.25v2H196.7v5.411h1.966v-5.411h1.67Z" transform="translate(-186.59 -122.323)"/></svg>