<svg xmlns="http://www.w3.org/2000/svg" width="22.708" height="22.708" viewBox="0 0 22.708 22.708"><defs><style>.a{fill:#83786f;}</style></defs><g transform="translate(-1403 -1470.371)"><path class="a" d="M11.354,0A11.354,11.354,0,1,0,22.709,11.354,11.354,11.354,0,0,0,11.354,0Zm0,20.934a9.58,9.58,0,1,1,9.58-9.58A9.58,9.58,0,0,1,11.354,20.934Z" transform="translate(1403 1470.371)"/><g transform="translate(1409.292 1429.725)"><g transform="translate(0 48)"><path class="a" d="M10.046,48.966a4.294,4.294,0,0,1-1.187.325,2.048,2.048,0,0,0,.906-1.138,4.116,4.116,0,0,1-1.306.5A2.059,2.059,0,0,0,4.9,50.06a2.121,2.121,0,0,0,.048.47A5.829,5.829,0,0,1,.7,48.375a2.06,2.06,0,0,0,.633,2.753A2.034,2.034,0,0,1,.4,50.874V50.9a2.069,2.069,0,0,0,1.65,2.024,2.055,2.055,0,0,1-.54.068,1.821,1.821,0,0,1-.39-.035,2.079,2.079,0,0,0,1.924,1.435,4.138,4.138,0,0,1-2.554.878A3.857,3.857,0,0,1,0,55.238a5.8,5.8,0,0,0,3.159.924A5.821,5.821,0,0,0,9.021,50.3c0-.091,0-.179-.008-.266A4.109,4.109,0,0,0,10.046,48.966Z" transform="translate(0 -48)"/></g></g></g></svg>