<svg xmlns="http://www.w3.org/2000/svg" width="22.708" height="22.708" viewBox="0 0 22.708 22.708"><defs><style>.a{fill:#83786f;}</style></defs><g transform="translate(-1372 -1470)"><path class="a" d="M11.354,0A11.354,11.354,0,1,0,22.709,11.354,11.354,11.354,0,0,0,11.354,0Zm0,20.934a9.58,9.58,0,1,1,9.58-9.58A9.58,9.58,0,0,1,11.354,20.934Z" transform="translate(1372 1470)"/><g transform="translate(1377 1403.912)"><path class="a" d="M12.012,76.374q-.007-.362-.057-.915a8.326,8.326,0,0,0-.144-.989,1.56,1.56,0,0,0-.466-.825,1.429,1.429,0,0,0-.835-.389,44,44,0,0,0-4.5-.168,44,44,0,0,0-4.5.168,1.414,1.414,0,0,0-.832.389,1.569,1.569,0,0,0-.463.825,7.423,7.423,0,0,0-.151.989q-.05.553-.057.915T0,77.38q0,.644.007,1.006t.057.915a8.3,8.3,0,0,0,.144.989,1.559,1.559,0,0,0,.466.825,1.43,1.43,0,0,0,.835.389,43.955,43.955,0,0,0,4.5.168,43.956,43.956,0,0,0,4.5-.168,1.414,1.414,0,0,0,.832-.389,1.569,1.569,0,0,0,.463-.825,7.428,7.428,0,0,0,.151-.989q.05-.553.057-.915t.007-1.006Q12.018,76.736,12.012,76.374ZM8.383,77.742,4.95,79.889a.382.382,0,0,1-.228.067.464.464,0,0,1-.208-.054.4.4,0,0,1-.221-.375V75.234a.4.4,0,0,1,.221-.376.4.4,0,0,1,.436.013l3.434,2.146a.427.427,0,0,1,0,.724Z"/></g></g></svg>